<svg width="3045" height="1013" xmlns="http://www.w3.org/2000/svg" xmlns:xlink="http://www.w3.org/1999/xlink" xml:space="preserve" overflow="hidden"><defs><clipPath id="clip0"><rect x="742" y="762" width="3045" height="1013"/></clipPath></defs><g clip-path="url(#clip0)" transform="translate(-742 -762)"><rect x="798" y="762" width="2950" height="1013" fill="#FFFFFF"/><rect x="1410" y="939" width="366" height="500" fill="#F2F2F2"/><text font-family="Arial,Arial_MSFontService,sans-serif" font-weight="400" font-size="41" transform="matrix(1 0 0 1 1571.35 986)">(optional)</text><rect x="1451" y="1011" width="314" height="187" fill="#BECF70"/><rect x="1179" y="1012" width="231" height="187" fill="#35BEE3"/><rect x="830" y="1012" width="294" height="188" fill="#758AB2"/><path d="M1119.5 1244.5C1119.5 1259.14 1117.52 1271 1115.08 1271L978.917 1271C976.477 1271 974.5 1282.86 974.5 1297.5 974.5 1282.86 972.523 1271 970.083 1271L833.916 1271C831.477 1271 829.5 1259.14 829.5 1244.5" stroke="#000000" stroke-width="9.16667" stroke-linejoin="round" stroke-miterlimit="10" fill="none" fill-rule="evenodd"/><text fill="#758AB2" font-family="Arial,Arial_MSFontService,sans-serif" font-weight="400" font-size="46" transform="matrix(1 0 0 1 900.67 1372)">Vendor</text><text fill="#35BEE3" font-family="Arial,Arial_MSFontService,sans-serif" font-weight="400" font-size="48" transform="matrix(1 0 0 1 1153.54 1350)">Application/</text><text fill="#35BEE3" font-family="Arial,Arial_MSFontService,sans-serif" font-weight="400" font-size="48" transform="matrix(1 0 0 1 1197.96 1408)">Service</text><text fill="#35BEE3" font-family="Arial,Arial_MSFontService,sans-serif" font-weight="400" font-size="46" transform="matrix(1 0 0 1 923.965 1563)">System</text><text fill="#35BEE3" font-family="Arial,Arial_MSFontService,sans-serif" font-weight="400" font-size="46" transform="matrix(1 0 0 1 1088.96 1563)">Namespace</text><rect x="830" y="799" width="946" height="94.0002"/><text fill="#FFFFFF" font-family="Arial,Arial_MSFontService,sans-serif" font-weight="400" font-size="50" transform="matrix(1 0 0 1 862.952 864)">VARIANT 1: Ownership by </text><text fill="#FFFFFF" font-family="Arial,Arial_MSFontService,sans-serif" font-weight="400" font-size="50" transform="matrix(1 0 0 1 1473.68 864)">System</text><text fill="#BECF70" font-family="Arial,Arial_MSFontService,sans-serif" font-weight="400" font-size="46" transform="matrix(1 0 0 1 1494.1 1372)">Sub</text><text fill="#BECF70" font-family="Arial,Arial_MSFontService,sans-serif" font-weight="400" font-size="46" transform="matrix(1 0 0 1 1574.88 1372)">-</text><text fill="#BECF70" font-family="Arial,Arial_MSFontService,sans-serif" font-weight="400" font-size="46" transform="matrix(1 0 0 1 1590.35 1372)">Context</text><path d="M1408.5 1240.5C1408.5 1255.14 1406.52 1267 1404.08 1267L1304.92 1267C1302.48 1267 1300.5 1278.86 1300.5 1293.5 1300.5 1278.86 1298.52 1267 1296.08 1267L1196.92 1267C1194.48 1267 1192.5 1255.14 1192.5 1240.5" stroke="#000000" stroke-width="9.16667" stroke-linejoin="round" stroke-miterlimit="10" fill="none" fill-rule="evenodd"/><path d="M1765.5 1239.5C1765.5 1254.14 1763.52 1266 1761.08 1266L1612.92 1266C1610.48 1266 1608.5 1277.86 1608.5 1292.5 1608.5 1277.86 1606.52 1266 1604.08 1266L1455.92 1266C1453.48 1266 1451.5 1254.14 1451.5 1239.5" stroke="#000000" stroke-width="9.16667" stroke-linejoin="round" stroke-miterlimit="10" fill="none" fill-rule="evenodd"/><path d="M1409.5 1449.5C1409.5 1464.14 1407.52 1476 1405.08 1476L1123.92 1476C1121.48 1476 1119.5 1487.86 1119.5 1502.5 1119.5 1487.86 1117.52 1476 1115.08 1476L833.916 1476C831.477 1476 829.5 1464.14 829.5 1449.5" stroke="#000000" stroke-width="9.16667" stroke-linejoin="round" stroke-miterlimit="10" fill="none" fill-rule="evenodd"/><rect x="2522" y="939" width="1190" height="498" fill="#F2F2F2"/><text font-family="Arial,Arial_MSFontService,sans-serif" font-weight="400" font-size="41" transform="matrix(1 0 0 1 3507.47 986)">(optional)</text><rect x="2586" y="1011" width="1108" height="187" fill="#BECF70"/><rect x="2218" y="1012" width="304" height="187" fill="#FF9555"/><rect x="1860" y="1012" width="294" height="188" fill="#758AB2"/><text font-family="Consolas,Consolas_MSFontService,sans-serif" font-weight="400" font-size="165" transform="matrix(1 0 0 1 1877.52 1148)">sap.odm.finance.bank</text><path d="M2149.5 1244.5C2149.5 1259.14 2147.52 1271 2145.08 1271L2008.92 1271C2006.48 1271 2004.5 1282.86 2004.5 1297.5 2004.5 1282.86 2002.52 1271 2000.08 1271L1863.92 1271C1861.48 1271 1859.5 1259.14 1859.5 1244.5" stroke="#000000" stroke-width="9.16667" stroke-linejoin="round" stroke-miterlimit="10" fill="none" fill-rule="evenodd"/><text fill="#758AB2" font-family="Arial,Arial_MSFontService,sans-serif" font-weight="400" font-size="46" transform="matrix(1 0 0 1 1930.34 1372)">Vendor</text><text fill="#FF9555" font-family="Arial,Arial_MSFontService,sans-serif" font-weight="400" font-size="46" transform="matrix(1 0 0 1 2284.23 1370)">Authority</text><text fill="#FF9555" font-family="Arial,Arial_MSFontService,sans-serif" font-weight="400" font-size="46" transform="matrix(1 0 0 1 1944.67 1569)">Authority Namespace</text><rect x="1860" y="799" width="1852" height="94.0002"/><text fill="#FFFFFF" font-family="Arial,Arial_MSFontService,sans-serif" font-weight="400" font-size="50" transform="matrix(1 0 0 1 1892.62 864)">VARIANT 2: Ownership by Authority</text><text fill="#BECF70" font-family="Arial,Arial_MSFontService,sans-serif" font-weight="400" font-size="46" transform="matrix(1 0 0 1 2966.49 1367)">Sub</text><text fill="#BECF70" font-family="Arial,Arial_MSFontService,sans-serif" font-weight="400" font-size="46" transform="matrix(1 0 0 1 3047.27 1367)">-</text><text fill="#BECF70" font-family="Arial,Arial_MSFontService,sans-serif" font-weight="400" font-size="46" transform="matrix(1 0 0 1 3062.74 1367)">Context</text><path d="M2522.5 1240.5C2522.5 1255.14 2520.52 1267 2518.08 1267L2374.92 1267C2372.48 1267 2370.5 1278.86 2370.5 1293.5 2370.5 1278.86 2368.52 1267 2366.08 1267L2222.92 1267C2220.48 1267 2218.5 1255.14 2218.5 1240.5" stroke="#000000" stroke-width="9.16667" stroke-linejoin="round" stroke-miterlimit="10" fill="none" fill-rule="evenodd"/><path d="M3694.5 1240.5C3694.5 1255.14 3692.52 1267 3690.08 1267L3144.92 1267C3142.48 1267 3140.5 1278.86 3140.5 1293.5 3140.5 1278.86 3138.52 1267 3136.08 1267L2590.92 1267C2588.48 1267 2586.5 1255.13 2586.5 1240.5" stroke="#000000" stroke-width="9.16667" stroke-linejoin="round" stroke-miterlimit="10" fill="none" fill-rule="evenodd"/><path d="M2522.5 1449.5C2522.5 1464.14 2520.52 1476 2518.08 1476L2195.42 1476C2192.98 1476 2191 1487.86 2191 1502.5 2191 1487.86 2189.02 1476 2186.58 1476L1863.92 1476C1861.48 1476 1859.5 1464.14 1859.5 1449.5" stroke="#000000" stroke-width="9.16667" stroke-linejoin="round" stroke-miterlimit="10" fill="none" fill-rule="evenodd"/><text font-family="Consolas,Consolas_MSFontService,sans-serif" font-weight="400" font-size="165" transform="matrix(1 0 0 1 841.137 1148)">sap.s4.beh</text><path d="M1765.5 1610.5C1765.5 1625.14 1763.52 1637 1761.08 1637L1295.42 1637C1292.98 1637 1291 1648.86 1291 1663.5 1291 1648.86 1289.02 1637 1286.58 1637L820.916 1637C818.477 1637 816.5 1625.14 816.5 1610.5" stroke="#000000" stroke-width="9.16667" stroke-linejoin="round" stroke-miterlimit="10" fill="none" fill-rule="evenodd"/><text font-family="Arial,Arial_MSFontService,sans-serif" font-weight="400" font-size="46" transform="matrix(1 0 0 1 1172.14 1724)">Namespace</text><path d="M3694.5 1611.5C3694.5 1626.14 3692.52 1638 3690.08 1638L2781.42 1638C2778.98 1638 2777 1649.86 2777 1664.5 2777 1649.86 2775.02 1638 2772.58 1638L1863.92 1638C1861.48 1638 1859.5 1626.14 1859.5 1611.5" stroke="#000000" stroke-width="9.16667" stroke-linejoin="round" stroke-miterlimit="10" fill="none" fill-rule="evenodd"/><text font-family="Arial,Arial_MSFontService,sans-serif" font-weight="400" font-size="46" transform="matrix(1 0 0 1 2654.74 1724)">Namespace</text></g></svg>