<svg width="3420" height="1075" xmlns="http://www.w3.org/2000/svg" xmlns:xlink="http://www.w3.org/1999/xlink" overflow="hidden"><defs><clipPath id="clip0"><rect x="170" y="1217" width="3420" height="1075"/></clipPath></defs><g clip-path="url(#clip0)" transform="translate(-170 -1217)"><rect x="182.5" y="1221.5" width="2462" height="1066" stroke="#7F7F7F" stroke-width="9.16667" stroke-miterlimit="8" fill="#F2F2F2"/><text font-family="Arial,Arial_MSFontService,sans-serif" font-weight="400" font-size="73" transform="matrix(1 0 0 1 214.37 1318)">(Customer) System Landscape</text><path d="M851.5 1936.5 915.5 1808.5 1078.5 1808.5 1142.5 1936.5 1078.5 2064.5 915.5 2064.5Z" stroke="#008FD3" stroke-width="9.16667" stroke-miterlimit="8" fill="#C3ECFF" fill-rule="evenodd"/><path d="M1245.5 2129 1309.75 2000.5 1472.25 2000.5 1536.5 2129 1472.25 2257.5 1309.75 2257.5Z" stroke="#008FD3" stroke-width="9.16667" stroke-miterlimit="8" fill="#C3ECFF" fill-rule="evenodd"/><path d="M774.5 1507 838.75 1378.5 1001.25 1378.5 1065.5 1507 1001.25 1635.5 838.75 1635.5Z" stroke="#008FD3" stroke-width="9.16667" stroke-miterlimit="8" fill="#C3ECFF" fill-rule="evenodd"/><path d="M1658.5 1891 1722.75 1762.5 1885.25 1762.5 1949.5 1891 1885.25 2019.5 1722.75 2019.5Z" stroke="#008FD3" stroke-width="9.16667" stroke-miterlimit="8" fill="#C3ECFF" fill-rule="evenodd"/><path d="M1138.5 1660 1251.75 1433.5 1539.25 1433.5 1652.5 1660 1539.25 1886.5 1251.75 1886.5Z" stroke="#F0AB00" stroke-width="9.16667" stroke-miterlimit="8" fill="#FFEFC9" fill-rule="evenodd"/><path d="M1.78436e-06-6.875 1356.11-6.87465 1356.11 6.87535-1.78436e-06 6.875ZM1349.24-20.6247 1390.49 0.000360892 1349.24 20.6253Z" transform="matrix(-1 0 0 1 2926.49 1428)"/><text font-family="Arial,Arial_MSFontService,sans-serif" font-weight="400" font-size="73" transform="matrix(1 0 0 1 1697.12 1407)">discover combined<tspan font-size="73" x="0" y="88">system </tspan><tspan font-size="73" x="253.229" y="88">landscape metadata</tspan></text><path d="M488.5 1758.5 552.5 1630.5 715.5 1630.5 779.5 1758.5 715.5 1886.5 552.5 1886.5Z" stroke="#008FD3" stroke-width="9.16667" stroke-miterlimit="8" fill="#C3ECFF" fill-rule="evenodd"/><path d="M1163.84 1590.5 1078.78 1548.11 1083.37 1538.88 1168.44 1581.27ZM1078.79 1559.64 1058 1532 1092.59 1531.95Z" fill="#7F7F7F"/><path d="M2.16845-4.67811 85.4566 33.9284 81.1197 43.2847-2.16845 4.67811ZM85.1154 22.4037 106.679 49.4488 72.1047 50.4724Z" fill="#7F7F7F" transform="matrix(-1 0 0 1 1219.68 1821)"/><path d="M1.36148-4.97326 335.983 86.6326 333.26 96.5791-1.36148 4.97326ZM333.733 75.3246 359.488 98.4132 325.564 105.164Z" fill="#7F7F7F" transform="matrix(-1 0 0 1 1138.49 1660)"/><path d="M5.15625-1.78274e-05 5.15652 78.6-5.15598 78.6-5.15625 1.78274e-05ZM15.469 73.4437 0.000360892 104.381-15.4685 73.4438Z" fill="#7F7F7F" transform="matrix(-1 0 0 1 1391 1891)"/><path d="M1592.18 1774.33 1674.65 1812.86 1670.29 1822.21 1587.82 1783.67ZM1674.35 1801.34 1695.83 1828.45 1661.25 1829.37Z" fill="#7F7F7F"/><rect x="1254" y="1389" width="282" height="78" fill="#0070C0"/><text fill="#FFFFFF" font-family="Arial,Arial_MSFontService,sans-serif" font-weight="400" font-size="57" transform="matrix(1 0 0 1 1300.19 1450)">Service<tspan fill="#785600" font-size="73" x="13.5955" y="186">ORD</tspan><tspan fill="#785600" font-size="73" x="-86.3899" y="274">Aggregator</tspan></text><path d="M2927.5 1429 2983.75 1316.5 3528.25 1316.5 3584.5 1429 3528.25 1541.5 2983.75 1541.5Z" stroke="#4FB81C" stroke-width="9.16667" stroke-miterlimit="8" fill="#DAF7CB" fill-rule="evenodd"/><text font-family="Arial,Arial_MSFontService,sans-serif" font-weight="400" font-size="83" transform="matrix(1 0 0 1 3163.36 1409)">ORD<tspan font-size="83" x="-119.167" y="99">Consumers</tspan></text></g></svg>