<svg width="3941" height="1370" xmlns="http://www.w3.org/2000/svg" xmlns:xlink="http://www.w3.org/1999/xlink" xml:space="preserve" overflow="hidden"><defs><clipPath id="clip0"><rect x="156" y="455" width="3941" height="1370"/></clipPath><clipPath id="clip1"><rect x="1635" y="841" width="2463" height="984"/></clipPath><clipPath id="clip2"><rect x="1635" y="841" width="2463" height="984"/></clipPath><clipPath id="clip3"><rect x="1635" y="841" width="2463" height="984"/></clipPath></defs><g clip-path="url(#clip0)" transform="translate(-156 -455)"><rect x="179" y="477" width="1254" height="1319" fill="#F2F2F2"/><text font-family="Arial,Arial_MSFontService,sans-serif" font-weight="700" font-size="92" transform="matrix(1 0 0 1 211.803 592)">Open Resource Discovery</text><text font-family="Arial,Arial_MSFontService,sans-serif" font-weight="700" font-size="73" transform="matrix(1 0 0 1 1662.66 548)">Our goal is to enable full automation. </text><text font-family="Arial,Arial_MSFontService,sans-serif" font-weight="400" font-size="73" transform="matrix(1 0 0 1 1662.66 664)">This requires the standardization of some behaviors, </text><text font-family="Arial,Arial_MSFontService,sans-serif" font-weight="400" font-size="73" transform="matrix(1 0 0 1 1662.66 752)">e</text><text font-family="Arial,Arial_MSFontService,sans-serif" font-weight="400" font-size="73" transform="matrix(1 0 0 1 1703.34 752)">.g. by establishing conventions.</text><rect x="232" y="681" width="1154" height="1062" fill="#D9D9D9"/><text font-family="Arial,Arial_MSFontService,sans-serif" font-weight="700" font-size="83" transform="matrix(1 0 0 1 264.642 787)">ORD Behavior</text><text font-family="Arial,Arial_MSFontService,sans-serif" font-weight="400" font-size="64" transform="matrix(1 0 0 1 264.642 907)">How to discover, transport and </text><text font-family="Arial,Arial_MSFontService,sans-serif" font-weight="400" font-size="64" transform="matrix(1 0 0 1 264.642 984)">aggregate the information.</text><rect x="277" y="1043" width="1063" height="134" fill="#F2F2F2"/><text font-family="Arial,Arial_MSFontService,sans-serif" font-weight="700" font-size="73" transform="matrix(1 0 0 1 309.732 1140)">Discovery</text><rect x="277" y="1213" width="1063" height="134" fill="#F2F2F2"/><text font-family="Arial,Arial_MSFontService,sans-serif" font-weight="700" font-size="73" transform="matrix(1 0 0 1 309.732 1310)">Transport</text><rect x="277" y="1387" width="1063" height="133" fill="#F2F2F2"/><text font-family="Arial,Arial_MSFontService,sans-serif" font-weight="700" font-size="73" transform="matrix(1 0 0 1 309.731 1484)">Aggregation</text><rect x="277" y="1556" width="1063" height="134" fill="#F2F2F2"/><text font-family="Arial,Arial_MSFontService,sans-serif" font-weight="700" font-size="73" transform="matrix(1 0 0 1 309.731 1653)">Strategies</text><g clip-path="url(#clip1)"><g clip-path="url(#clip2)"><g clip-path="url(#clip3)"><path d="M325.478 265.224 352.945 265.224 352.945 937.596 325.478 937.596Z" stroke="#383838" stroke-width="2.74665" fill="#FFFFFF" transform="matrix(1 0 0 1.00071 1636 841)"/><path d="M1303.29 449.979 1330.75 449.979 1330.75 488.432 1303.29 488.432Z" stroke="#383838" stroke-width="2.74665" fill="#FFFFFF" transform="matrix(1 0 0 1.00071 1636 841)"/><path d="M1303.29 634.735 1330.75 634.735 1330.75 673.188 1303.29 673.188Z" stroke="#383838" stroke-width="2.74665" fill="#FFFFFF" transform="matrix(1 0 0 1.00071 1636 841)"/><path d="M1303.29 819.488 1330.75 819.488 1330.75 857.942 1303.29 857.942Z" stroke="#383838" stroke-width="2.74665" fill="#FFFFFF" transform="matrix(1 0 0 1.00071 1636 841)"/><path d="M2245.39 265.224 2272.85 265.224 2272.85 303.677 2245.39 303.677Z" stroke="#383838" stroke-width="2.74665" fill="#FFFFFF" transform="matrix(1 0 0 1.00071 1636 841)"/><path d="M27.4665 344.875 1624.64 344.875 1624.64 918.368 27.4665 918.368Z" stroke="#000000" stroke-width="5.4933" fill="#FFFFFF" transform="matrix(1 0 0 1.00071 1636 841)"/><path d="M54.933 529.631 1597.18 529.631 1597.18 899.141 54.933 899.141Z" stroke="#000000" stroke-width="5.4933" fill="#FFFFFF" transform="matrix(1 0 0 1.00071 1636 841)"/><path d="M82.3996 714.388 1569.71 714.388 1569.71 879.916 82.3996 879.916Z" stroke="#000000" stroke-width="5.4933" fill="#FFFFFF" transform="matrix(1 0 0 1.00071 1636 841)"/><path d="M337.838 99.695 337.838 965.061" stroke="#383838" stroke-width="2.74665" stroke-dasharray="13.7333 13.7333" fill="none" transform="matrix(1 0 0 1.00071 1636 841)"/><path d="M1317.02 99.695 1317.02 965.061" stroke="#383838" stroke-width="2.74665" stroke-dasharray="13.7333 13.7333" fill="none" transform="matrix(1 0 0 1.00071 1636 841)"/><path d="M2257.75 99.695 2257.75 965.061" stroke="#383838" stroke-width="2.74665" stroke-dasharray="13.7333 13.7333" fill="none" transform="matrix(1 0 0 1.00071 1636 841)"/><path d="M164.799 13.7333 513.624 13.7333 513.624 96.9483 164.799 96.9483Z" stroke="#383838" stroke-width="4.11998" fill="#F8F8F8" transform="matrix(1 0 0 1.00071 1636 841)"/><text font-family="Arial,Arial_MSFontService,sans-serif" font-weight="400" font-size="14" transform="matrix(2.74665 0 0 2.7486 1820.03 910)">ORD Aggregator</text><path d="M1146.73 13.7333 1487.31 13.7333 1487.31 96.9483 1146.73 96.9483Z" stroke="#383838" stroke-width="4.11998" fill="#F8F8F8" transform="matrix(1 0 0 1.00071 1636 841)"/><text font-family="Arial,Arial_MSFontService,sans-serif" font-weight="400" font-size="14" transform="matrix(2.74665 0 0 2.7486 2801.95 910)">ORD Provider</text><text font-family="Arial,Arial_MSFontService,sans-serif" font-weight="400" font-size="14" transform="matrix(2.74665 0 0 2.7486 3043.66 910)">(</text><text font-family="Arial,Arial_MSFontService,sans-serif" font-weight="400" font-size="14" transform="matrix(2.74665 0 0 2.7486 3057.39 910)">s</text><text font-family="Arial,Arial_MSFontService,sans-serif" font-weight="400" font-size="14" transform="matrix(2.74665 0 0 2.7486 3076.62 910)">)</text><path d="M2073.72 13.7333 2444.52 13.7333 2444.52 96.9483 2073.72 96.9483Z" stroke="#383838" stroke-width="4.11998" fill="#F8F8F8" transform="matrix(1 0 0 1.00071 1636 841)"/><text font-family="Arial,Arial_MSFontService,sans-serif" font-weight="400" font-size="14" transform="matrix(2.74665 0 0 2.7486 3728.95 910)">Service Discovery</text><path d="M325.478 265.224 352.945 265.224 352.945 937.596 325.478 937.596Z" stroke="#383838" stroke-width="2.74665" fill="#FFFFFF" transform="matrix(1 0 0 1.00071 1636 841)"/><path d="M1303.29 449.979 1330.75 449.979 1330.75 488.432 1303.29 488.432Z" stroke="#383838" stroke-width="2.74665" fill="#FFFFFF" transform="matrix(1 0 0 1.00071 1636 841)"/><path d="M1303.29 634.735 1330.75 634.735 1330.75 673.188 1303.29 673.188Z" stroke="#383838" stroke-width="2.74665" fill="#FFFFFF" transform="matrix(1 0 0 1.00071 1636 841)"/><path d="M1303.29 819.488 1330.75 819.488 1330.75 857.942 1303.29 857.942Z" stroke="#383838" stroke-width="2.74665" fill="#FFFFFF" transform="matrix(1 0 0 1.00071 1636 841)"/><path d="M2245.39 265.224 2272.85 265.224 2272.85 303.677 2245.39 303.677Z" stroke="#383838" stroke-width="2.74665" fill="#FFFFFF" transform="matrix(1 0 0 1.00071 1636 841)"/><path d="M2226.16 174.219 2253.63 185.206 2226.16 196.193Z" stroke="#383838" stroke-width="2.74665" fill="#383838" transform="matrix(1 0 0 1.00071 1636 841)"/><path d="M1317.02 185.206 2242.64 185.206" stroke="#383838" stroke-width="2.74665" fill="none" transform="matrix(1 0 0 1.00071 1636 841)"/><text font-family="Arial,Arial_MSFontService,sans-serif" font-weight="400" font-size="13" transform="matrix(2.74665 0 0 2.7486 2972.25 1012)">make system instance known to service discovery</text><path d="M2212.43 254.237 2239.89 265.224 2212.43 276.209Z" stroke="#383838" stroke-width="2.74665" fill="#383838" transform="matrix(1 0 0 1.00071 1636 841)"/><path d="M352.945 265.224 2228.91 265.224" stroke="#383838" stroke-width="2.74665" fill="none" transform="matrix(1 0 0 1.00071 1636 841)"/><text font-family="Arial,Arial_MSFontService,sans-serif" font-weight="400" font-size="13" transform="matrix(2.74665 0 0 2.7486 2008.17 1092)">discover system instances</text><path d="M383.158 292.689 355.691 303.675 383.158 314.662Z" stroke="#383838" stroke-width="2.74665" fill="#383838" transform="matrix(1 0 0 1.00071 1636 841)"/><path d="M366.678 303.675 2256.37 303.675" stroke="#383838" stroke-width="2.74665" fill="none" transform="matrix(1 0 0 1.00071 1636 841)"/><path d="M27.4665 344.875 238.959 344.875 238.959 364.102 211.492 391.568 27.4665 391.568 27.4665 344.875" stroke="#000000" stroke-width="2.74665" fill="#EEEEEE" transform="matrix(1 0 0 1.00071 1636 841)"/><path d="M27.4665 344.875 1624.64 344.875 1624.64 918.368 27.4665 918.368Z" stroke="#000000" stroke-width="5.4933" fill="none" transform="matrix(1 0 0 1.00071 1636 841)"/><text font-family="Arial,Arial_MSFontService,sans-serif" font-weight="700" font-size="13" transform="matrix(2.74665 0 0 2.7486 1704.67 1222)">loop</text><text font-family="Arial,Arial_MSFontService,sans-serif" font-weight="700" font-size="11" transform="matrix(2.74665 0 0 2.7486 1916.16 1220)">[</text><text font-family="Arial,Arial_MSFontService,sans-serif" font-weight="700" font-size="11" transform="matrix(2.74665 0 0 2.7486 1927.15 1220)">once per discovered system instance</text><text font-family="Arial,Arial_MSFontService,sans-serif" font-weight="700" font-size="11" transform="matrix(2.74665 0 0 2.7486 2501.2 1220)">]</text><path d="M1270.33 438.992 1297.79 449.979 1270.33 460.965Z" stroke="#383838" stroke-width="2.74665" fill="#383838" transform="matrix(1 0 0 1.00071 1636 841)"/><path d="M352.945 449.979 1286.81 449.979" stroke="#383838" stroke-width="2.74665" fill="none" transform="matrix(1 0 0 1.00071 1636 841)"/><text font-family="Arial,Arial_MSFontService,sans-serif" font-weight="400" font-size="13" transform="matrix(2.74665 0 0 2.7486 2008.17 1277)">Request system instance ORD configuration</text><path d="M383.158 477.445 355.691 488.432 383.158 499.418Z" stroke="#383838" stroke-width="2.74665" fill="#383838" transform="matrix(1 0 0 1.00071 1636 841)"/><path d="M366.678 488.432 1314.27 488.432" stroke="#383838" stroke-width="2.74665" stroke-dasharray="5.4933 5.4933" fill="none" transform="matrix(1 0 0 1.00071 1636 841)"/><path d="M54.933 529.631 266.425 529.631 266.425 548.858 238.959 576.325 54.933 576.325 54.933 529.631" stroke="#000000" stroke-width="2.74665" fill="#EEEEEE" transform="matrix(1 0 0 1.00071 1636 841)"/><path d="M54.933 529.631 1597.18 529.631 1597.18 899.141 54.933 899.141Z" stroke="#000000" stroke-width="5.4933" fill="none" transform="matrix(1 0 0 1.00071 1636 841)"/><text font-family="Arial,Arial_MSFontService,sans-serif" font-weight="700" font-size="13" transform="matrix(2.74665 0 0 2.7486 1732.13 1407)">loop</text><text font-family="Arial,Arial_MSFontService,sans-serif" font-weight="700" font-size="11" transform="matrix(2.74665 0 0 2.7486 1943.62 1405)">[</text><text font-family="Arial,Arial_MSFontService,sans-serif" font-weight="700" font-size="11" transform="matrix(2.74665 0 0 2.7486 1954.61 1405)">once per ORD document in ORD configuration</text><text font-family="Arial,Arial_MSFontService,sans-serif" font-weight="700" font-size="11" transform="matrix(2.74665 0 0 2.7486 2633.03 1405)">]</text><path d="M1270.33 623.748 1297.79 634.735 1270.33 645.721Z" stroke="#383838" stroke-width="2.74665" fill="#383838" transform="matrix(1 0 0 1.00071 1636 841)"/><path d="M352.945 634.735 1286.81 634.735" stroke="#383838" stroke-width="2.74665" fill="none" transform="matrix(1 0 0 1.00071 1636 841)"/><text font-family="Arial,Arial_MSFontService,sans-serif" font-weight="400" font-size="13" transform="matrix(2.74665 0 0 2.7486 2008.17 1462)">Requests ORD document</text><text font-family="Arial,Arial_MSFontService,sans-serif" font-weight="400" font-size="13" transform="matrix(2.74665 0 0 2.7486 2414.68 1462)">, </text><text font-family="Arial,Arial_MSFontService,sans-serif" font-weight="400" font-size="13" transform="matrix(2.74665 0 0 2.7486 2436.65 1462)">using an access strategy</text><path d="M383.158 662.201 355.691 673.188 383.158 684.175Z" stroke="#383838" stroke-width="2.74665" fill="#383838" transform="matrix(1 0 0 1.00071 1636 841)"/><path d="M366.678 673.188 1314.27 673.188" stroke="#383838" stroke-width="2.74665" stroke-dasharray="5.4933 5.4933" fill="none" transform="matrix(1 0 0 1.00071 1636 841)"/><path d="M82.3996 714.388 293.892 714.388 293.892 733.614 266.425 761.081 82.3996 761.081 82.3996 714.388" stroke="#000000" stroke-width="2.74665" fill="#EEEEEE" transform="matrix(1 0 0 1.00071 1636 841)"/><path d="M82.3996 714.388 1569.71 714.388 1569.71 879.916 82.3996 879.916Z" stroke="#000000" stroke-width="5.4933" fill="none" transform="matrix(1 0 0 1.00071 1636 841)"/><text font-family="Arial,Arial_MSFontService,sans-serif" font-weight="700" font-size="13" transform="matrix(2.74665 0 0 2.7486 1759.6 1592)">loop</text><text font-family="Arial,Arial_MSFontService,sans-serif" font-weight="700" font-size="11" transform="matrix(2.74665 0 0 2.7486 1971.09 1589)">[</text><text font-family="Arial,Arial_MSFontService,sans-serif" font-weight="700" font-size="11" transform="matrix(2.74665 0 0 2.7486 1982.08 1589)">once per resource definition in ORD document</text><text font-family="Arial,Arial_MSFontService,sans-serif" font-weight="700" font-size="11" transform="matrix(2.74665 0 0 2.7486 2682.47 1589)">]</text><path d="M1270.33 808.502 1297.79 819.488 1270.33 830.475Z" stroke="#383838" stroke-width="2.74665" fill="#383838" transform="matrix(1 0 0 1.00071 1636 841)"/><path d="M352.945 819.488 1286.81 819.488" stroke="#383838" stroke-width="2.74665" fill="none" transform="matrix(1 0 0 1.00071 1636 841)"/><text font-family="Arial,Arial_MSFontService,sans-serif" font-weight="400" font-size="13" transform="matrix(2.74665 0 0 2.7486 2008.17 1647)">Requests resource definition file</text><path d="M383.158 846.955 355.691 857.942 383.158 868.928Z" stroke="#383838" stroke-width="2.74665" fill="#383838" transform="matrix(1 0 0 1.00071 1636 841)"/><path d="M366.678 857.942 1314.27 857.942" stroke="#383838" stroke-width="2.74665" stroke-dasharray="5.4933 5.4933" fill="none" transform="matrix(1 0 0 1.00071 1636 841)"/></g></g></g></g></svg>