<svg width="3979" height="1214" xmlns="http://www.w3.org/2000/svg" xmlns:xlink="http://www.w3.org/1999/xlink" xml:space="preserve" overflow="hidden"><defs><clipPath id="clip0"><rect x="174" y="474" width="3979" height="1214"/></clipPath></defs><g clip-path="url(#clip0)" transform="translate(-174 -474)"><rect x="197" y="477" width="1287" height="1211" fill="#F2F2F2"/><text font-family="Arial,Arial_MSFontService,sans-serif" font-weight="700" font-size="92" transform="matrix(1 0 0 1 229.887 592)">Open Resource Discovery</text><rect x="251" y="677" width="1154" height="962" fill="#D9D9D9"/><text font-family="Arial,Arial_MSFontService,sans-serif" font-weight="700" font-size="92" transform="matrix(1 0 0 1 283.358 792)">ORD Roles</text><text font-family="Arial,Arial_MSFontService,sans-serif" font-weight="400" font-size="64" transform="matrix(1 0 0 1 283.358 914)">Represent different responsibilities </text><text font-family="Arial,Arial_MSFontService,sans-serif" font-weight="400" font-size="64" transform="matrix(1 0 0 1 283.358 991)">or use</text><text font-family="Arial,Arial_MSFontService,sans-serif" font-weight="400" font-size="64" transform="matrix(1 0 0 1 460.962 991)">-</text><text font-family="Arial,Arial_MSFontService,sans-serif" font-weight="400" font-size="64" transform="matrix(1 0 0 1 482.16 991)">cases that adopters fulfill.</text><path d="M296.5 1497.5 330 1430.5 1326 1430.5 1359.5 1497.5 1326 1564.5 330 1564.5Z" stroke="#4FB81C" stroke-width="6.875" stroke-miterlimit="8" fill="#DAF7CB" fill-rule="evenodd"/><text fill="#275C0E" font-family="Arial,Arial_MSFontService,sans-serif" font-weight="400" font-size="73" transform="matrix(1 0 0 1 566.636 1524)">ORD Consumer</text><path d="M296.5 1315 330.25 1247.5 1325.75 1247.5 1359.5 1315 1325.75 1382.5 330.25 1382.5Z" stroke="#F0AB00" stroke-width="6.875" stroke-miterlimit="8" fill="#FFEFC9" fill-rule="evenodd"/><text fill="#722A00" font-family="Arial,Arial_MSFontService,sans-serif" font-weight="400" font-size="73" transform="matrix(1 0 0 1 554.318 1341)">ORD Aggregator</text><path d="M2179.5 539.917 2624.31 539.917 2624.31 549.084 2179.5 549.083ZM2619.73 530.75 2647.23 544.5 2619.73 558.25Z"/><path d="M1767.5 603.5 1830.5 477.5 2138.5 477.5 2201.5 603.5 2138.5 729.5 1830.5 729.5Z" stroke="#008FD3" stroke-width="6.875" stroke-miterlimit="8" fill="#C3ECFF" fill-rule="evenodd"/><text fill="#004769" font-family="Arial,Arial_MSFontService,sans-serif" font-weight="400" font-size="41" transform="matrix(1 0 0 1 1938.04 593)">ORD </text><text fill="#004769" font-family="Arial,Arial_MSFontService,sans-serif" font-weight="400" font-size="41" transform="matrix(1 0 0 1 1907.1 643)">Provider</text><path d="M1783.5 1508.5 1825 1425.5 2279 1425.5 2320.5 1508.5 2279 1591.5 1825 1591.5Z" stroke="#4FB81C" stroke-width="6.875" stroke-miterlimit="8" fill="#DAF7CB" fill-rule="evenodd"/><text font-family="Arial,Arial_MSFontService,sans-serif" font-weight="400" font-size="46" transform="matrix(1 0 0 1 2000.2 1498)">ORD</text><text font-family="Arial,Arial_MSFontService,sans-serif" font-weight="400" font-size="46" transform="matrix(1 0 0 1 1945.77 1553)">Consumer</text><path d="M1783.5 1171.5 1825 1088.5 2279 1088.5 2320.5 1171.5 2279 1254.5 1825 1254.5Z" stroke="#F0AB00" stroke-width="6.875" stroke-miterlimit="8" fill="#FFEFC9" fill-rule="evenodd"/><text font-family="Arial,Arial_MSFontService,sans-serif" font-weight="400" font-size="48" transform="matrix(1 0 0 1 1997.62 1160)">ORD </text><text font-family="Arial,Arial_MSFontService,sans-serif" font-weight="400" font-size="48" transform="matrix(1 0 0 1 1931.74 1218)">Aggregator</text><rect x="2647.5" y="496.5" width="698" height="97.0003" stroke="#333333" stroke-width="6.875" stroke-miterlimit="8" fill="#F2F2F2"/><text font-family="Arial,Arial_MSFontService,sans-serif" font-weight="400" font-size="44" transform="matrix(1 0 0 1 2679.31 561)">ORD Document</text><rect x="2647.5" y="631.5" width="698" height="97.9999" stroke="#333333" stroke-width="6.875" stroke-miterlimit="8" fill="#F2F2F2"/><text font-family="Arial,Arial_MSFontService,sans-serif" font-weight="400" font-size="44" transform="matrix(1 0 0 1 2679.31 696)">ORD Transport Modes</text><rect x="3462.5" y="768.5" width="687" height="98" stroke="#333333" stroke-width="6.875" stroke-miterlimit="8" fill="#F2F2F2"/><text font-family="Arial,Arial_MSFontService,sans-serif" font-weight="400" font-size="44" transform="matrix(1 0 0 1 3494.71 834)">ORD Configuration Endpoint</text><rect x="2802.5" y="832.5" width="543" height="97.9999" stroke="#333333" stroke-width="6.875" stroke-miterlimit="8" fill="#F2F2F2"/><text font-family="Arial,Arial_MSFontService,sans-serif" font-weight="400" font-size="44" transform="matrix(1 0 0 1 2834.72 897)">Pull Transport</text><rect x="3462.5" y="892.5" width="687" height="98" stroke="#333333" stroke-width="6.875" stroke-miterlimit="8" fill="#F2F2F2"/><text font-family="Arial,Arial_MSFontService,sans-serif" font-weight="400" font-size="44" transform="matrix(1 0 0 1 3494.71 957)">ORD Document Endpoint</text><rect x="2647.5" y="1058.5" width="698" height="96.9999" stroke="#333333" stroke-width="6.875" stroke-miterlimit="8" fill="#F2F2F2"/><text font-family="Arial,Arial_MSFontService,sans-serif" font-weight="400" font-size="44" transform="matrix(1 0 0 1 2679.31 1123)">ORD Aggregation</text><text font-family="Arial,Arial_MSFontService,sans-serif" font-weight="400" font-size="28" transform="matrix(1 0 0 1 3034.51 1123)">(Rules, Validation)</text><rect x="2647.5" y="1191.5" width="698" height="98" stroke="#333333" stroke-width="6.875" stroke-miterlimit="8" fill="#F2F2F2"/><text font-family="Arial,Arial_MSFontService,sans-serif" font-weight="400" font-size="44" transform="matrix(1 0 0 1 2679.31 1257)">ORD Service</text><path d="M2179.5 675.917 2624.31 675.917 2624.31 685.084 2179.5 685.083ZM2619.73 666.75 2647.23 680.5 2619.73 694.25Z"/><text font-family="Arial,Arial_MSFontService,sans-serif" font-weight="400" font-size="33" transform="matrix(1 0 0 1 2216.81 528)">MUST implement</text><text font-family="Arial,Arial_MSFontService,sans-serif" font-weight="400" font-size="33" transform="matrix(1 0 0 1 2216.81 659)">MUST implement one of</text><path d="M3000.66 729.5 3000.66 805.998C3000.66 808.53 2998.61 810.582 2996.08 810.582L2702.43 810.582 2707.01 805.998 2707.01 881.642 2702.43 877.058 2779.58 877.058 2779.58 886.225 2702.43 886.225C2699.9 886.225 2697.84 884.173 2697.84 881.642L2697.84 805.998C2697.84 803.467 2699.9 801.415 2702.43 801.415L2996.08 801.415 2991.5 805.998 2991.5 729.5ZM2775 867.892 2802.5 881.642 2775 895.392Z"/><path d="M0-4.58333 58.6975-4.58333C61.2288-4.58333 63.2809-2.53131 63.2809 0L63.2809 63.6921 58.6975 59.1088 94.4784 59.1088 94.4784 68.2754 58.6975 68.2754C56.1662 68.2754 54.1142 66.2234 54.1142 63.6921L54.1142 0 58.6975 4.58333 0 4.58333ZM89.895 49.9421 117.395 63.6921 89.895 77.4421Z" transform="matrix(1 0 0 -1 3345.5 881.192)"/><path d="M3345.5 876.917 3404.2 876.917C3406.73 876.917 3408.78 878.969 3408.78 881.5L3408.78 941.383 3404.2 936.8 3439.98 936.8 3439.98 945.967 3404.2 945.967C3401.67 945.967 3399.61 943.915 3399.61 941.383L3399.61 881.5 3404.2 886.083 3345.5 886.083ZM3435.39 927.633 3462.89 941.383 3435.39 955.133Z"/><text font-family="Arial,Arial_MSFontService,sans-serif" font-weight="400" font-size="33" transform="matrix(1 0 0 1 2646.83 789)">Implementation Option</text><text font-family="Arial,Arial_MSFontService,sans-serif" font-weight="400" font-size="33" transform="matrix(1 0 0 1 3209.11 802)">implemented by</text><path d="M2303.5 1102.92 2624.88 1102.92 2624.88 1112.08 2303.5 1112.08ZM2620.3 1093.75 2647.8 1107.5 2620.3 1121.25Z"/><text font-family="Arial,Arial_MSFontService,sans-serif" font-weight="400" font-size="33" transform="matrix(1 0 0 1 2328.24 1085)">MUST implement</text><path d="M2303.52 1234.92 2624.91 1236.48 2624.86 1245.64 2303.48 1244.08ZM2620.37 1227.29 2647.8 1241.17 2620.23 1254.79Z"/><text font-family="Arial,Arial_MSFontService,sans-serif" font-weight="400" font-size="33" transform="matrix(1 0 0 1 2328.24 1222)">MUST implement</text><path d="M0-4.58333 27.5-4.58333 27.5 4.58333 0 4.58333ZM36.6667-4.58333 64.1667-4.58333 64.1667 4.58333 36.6667 4.58333ZM73.3333-4.58333 100.833-4.58333 100.833 4.58333 73.3333 4.58333ZM110-4.58333 137.5-4.58333 137.5 4.58333 110 4.58333ZM146.667-4.58333 174.167-4.58333 174.167 4.58333 146.667 4.58333ZM183.333-4.58333 210.833-4.58333 210.833 4.58333 183.333 4.58333ZM220-4.58333 247.5-4.58333 247.5 4.58333 220 4.58333ZM256.667-4.58333 284.167-4.58333 284.167 4.58333 256.667 4.58333ZM293.333-4.58333 320.833-4.58333 320.833 4.58333 293.333 4.58333ZM330-4.58333 357.5-4.58333 357.5 4.58333 330 4.58333ZM366.667-4.58333 394.167-4.58333 394.167 4.58333 366.667 4.58333ZM403.333-4.58333 430.833-4.58333 430.833 4.58333 403.333 4.58333ZM440-4.58333 467.5-4.58333 467.5 4.58333 440 4.58333ZM476.667-4.58333 504.167-4.58333 504.167 4.58333 476.667 4.58333ZM513.333-4.58333 540.833-4.58333 540.833 4.58333 513.333 4.58333ZM550-4.58333 577.5-4.58333 577.5 4.58333 550 4.58333ZM586.667-4.58333 614.167-4.58333 614.167 4.58333 586.667 4.58333ZM623.333-4.58333 650.833-4.58333 650.833 4.58333 623.333 4.58333ZM660-4.58333 675.97-4.58333C678.501-4.58333 680.553-2.53131 680.553 0L680.553 11.5302 671.387 11.5302 671.387 0 675.97 4.58333 660 4.58333ZM680.553 20.6968 680.553 48.1968 671.387 48.1968 671.387 20.6968ZM680.553 57.3635 680.553 84.8635 671.387 84.8635 671.387 57.3635ZM680.553 94.0302 680.553 121.53 671.387 121.53 671.387 94.0302ZM680.553 130.697 680.553 158.197 671.387 158.197 671.387 130.697ZM680.553 167.363 680.553 194.863 671.387 194.863 671.387 167.363ZM689.72 191.683 675.97 219.183 662.22 191.683Z" transform="matrix(1 0 0 -1 2320.5 1508.68)"/><text font-family="Arial,Arial_MSFontService,sans-serif" font-weight="400" font-size="33" transform="matrix(1 0 0 1 2345.06 1490)">SHOULD use</text><rect x="2802.5" y="941.5" width="543" height="57.0001" stroke="#333333" stroke-width="6.875" stroke-miterlimit="8" fill="#F2F2F2"/><text font-family="Arial,Arial_MSFontService,sans-serif" font-weight="400" font-size="44" transform="matrix(1 0 0 1 2834.69 986)">...</text><path d="M3.12002-3.35744 408.521 373.376 402.281 380.091-3.12002 3.35744ZM411.403 363.541 422.188 392.334 392.683 383.686Z" transform="matrix(1 0 0 -1 2225.5 1072.83)"/><text font-family="Arial,Arial_MSFontService,sans-serif" font-weight="400" font-size="33" transform="matrix(0.735954 -0.677032 0.677032 0.735954 2236.72 1039)">MUST support all of</text><path d="M296.5 1135.5 329 1070.5 1327 1070.5 1359.5 1135.5 1327 1200.5 329 1200.5Z" stroke="#008FD3" stroke-width="6.875" stroke-miterlimit="8" fill="#C3ECFF" fill-rule="evenodd"/><text fill="#004769" font-family="Arial,Arial_MSFontService,sans-serif" font-weight="400" font-size="73" transform="matrix(1 0 0 1 599.292 1162)">ORD Provider</text><path d="M2056.08 1259.5 2056.08 1403.05 2046.92 1403.05 2046.92 1259.5ZM2065.25 1398.47 2051.5 1425.97 2037.75 1398.47Z"/><text font-family="Arial,Arial_MSFontService,sans-serif" font-weight="400" font-size="33" transform="matrix(1 0 0 1 2076.02 1360)">Special case of</text></g></svg>