<svg width="3962" height="1858" xmlns="http://www.w3.org/2000/svg" xmlns:xlink="http://www.w3.org/1999/xlink" xml:space="preserve" overflow="hidden"><defs><clipPath id="clip0"><rect x="162" y="434" width="3962" height="1858"/></clipPath></defs><g clip-path="url(#clip0)" transform="translate(-162 -434)"><rect x="179.5" y="438.5" width="1755" height="347" stroke="#000000" stroke-width="9.16667" stroke-miterlimit="8" fill="#F2F2F2"/><text font-family="Arial,Arial_MSFontService,sans-serif" font-weight="400" font-size="83" transform="matrix(1 0 0 1 211.804 544)">API Resource</text><text font-family="Consolas,Consolas_MSFontService,sans-serif" font-weight="400" font-size="50" transform="matrix(1 0 0 1 211.804 611)">ordId: "sap.s4:apiResource:OP_A_LGLCNTNTMACCESSLVL_CDS:v1"</text><text font-family="Consolas,Consolas_MSFontService,sans-serif" font-weight="400" font-size="50" transform="matrix(1 0 0 1 211.804 671)">version: "1.0.0"</text><text font-family="Consolas,Consolas_MSFontService,sans-serif" font-weight="400" font-size="50" transform="matrix(1 0 0 1 211.804 732)">releaseStatus: "active"</text><rect x="179.5" y="1337.5" width="1755" height="347" stroke="#000000" stroke-width="9.16667" stroke-miterlimit="8" fill="#F2F2F2"/><path d="M541.804 1523.95 569.304 1523.95 569.304 1582.95 541.804 1582.95Z" fill="#C0C0C0" fill-rule="evenodd"/><text font-family="Arial,Arial_MSFontService,sans-serif" font-weight="400" font-size="83" transform="matrix(1 0 0 1 211.804 1443)">API Resource</text><text font-family="Consolas,Consolas_MSFontService,sans-serif" font-weight="400" font-size="50" transform="matrix(1 0 0 1 211.804 1510)">ordId: "sap.s4:apiResource:OP_A_LGLCNTNTMACCESSLVL_CDS:v1"</text><text font-family="Consolas,Consolas_MSFontService,sans-serif" font-weight="400" font-size="50" transform="matrix(1 0 0 1 211.804 1570)">version: "1.</text><text font-family="Consolas,Consolas_MSFontService,sans-serif" font-weight="700" font-size="50" transform="matrix(1 0 0 1 541.804 1570)">1</text><text font-family="Consolas,Consolas_MSFontService,sans-serif" font-weight="400" font-size="50" transform="matrix(1 0 0 1 569.304 1570)">.0"</text><text font-family="Consolas,Consolas_MSFontService,sans-serif" font-weight="400" font-size="50" transform="matrix(1 0 0 1 211.804 1631)">releaseStatus: "active"</text><rect x="2361.5" y="438.5" width="1754" height="347" stroke="#000000" stroke-width="9.16667" stroke-miterlimit="8" fill="#F2F2F2"/><path d="M2668.19 625.119 2805.69 625.119 2805.69 684.119 2668.19 684.119Z" fill="#C0C0C0" fill-rule="evenodd"/><text font-family="Arial,Arial_MSFontService,sans-serif" font-weight="400" font-size="83" transform="matrix(1 0 0 1 2393.19 544)">API Resource</text><text font-family="Consolas,Consolas_MSFontService,sans-serif" font-weight="400" font-size="50" transform="matrix(1 0 0 1 2393.19 611)">ordId: "sap.s4:apiResource:OP_A_LGLCNTNTMACCESSLVL_CDS:</text><text font-family="Consolas,Consolas_MSFontService,sans-serif" font-weight="700" font-size="50" transform="matrix(1 0 0 1 3905.69 611)">v2</text><text font-family="Consolas,Consolas_MSFontService,sans-serif" font-weight="400" font-size="50" transform="matrix(1 0 0 1 3960.69 611)">"</text><text font-family="Consolas,Consolas_MSFontService,sans-serif" font-weight="400" font-size="50" transform="matrix(1 0 0 1 2393.19 671)">version: "</text><text font-family="Consolas,Consolas_MSFontService,sans-serif" font-weight="700" font-size="50" transform="matrix(1 0 0 1 2668.19 671)">2.0.0</text><text font-family="Consolas,Consolas_MSFontService,sans-serif" font-weight="400" font-size="50" transform="matrix(1 0 0 1 2805.69 671)">"</text><text font-family="Consolas,Consolas_MSFontService,sans-serif" font-weight="400" font-size="50" transform="matrix(1 0 0 1 2393.19 732)">releaseStatus: "active"</text><text font-family="Arial,Arial_MSFontService,sans-serif" font-weight="400" font-size="50" transform="matrix(1 0 0 1 1133.94 1083)">ID is kept stable</text><text font-family="Arial,Arial_MSFontService,sans-serif" font-weight="400" font-size="50" transform="matrix(1 0 0 1 1133.94 1144)">Minor version is increment</text><text font-family="Arial,Arial_MSFontService,sans-serif" font-weight="400" font-size="50" transform="matrix(1 0 0 1 1133.94 1204)">Resource is considered updated</text><text font-family="Arial,Arial_MSFontService,sans-serif" font-weight="400" font-size="50" transform="matrix(1 0 0 1 1133.94 1265)">Resource definitions will be refetched</text><rect x="179.5" y="1940.5" width="1755" height="347" stroke="#000000" stroke-width="9.16667" stroke-miterlimit="8" fill="#F2F2F2"/><path d="M651.803 2187.85 926.803 2187.85 926.803 2246.85 651.803 2246.85Z" fill="#C0C0C0" fill-rule="evenodd"/><text font-family="Arial,Arial_MSFontService,sans-serif" font-weight="400" font-size="83" transform="matrix(1 0 0 1 211.803 2046)">API Resource</text><text font-family="Consolas,Consolas_MSFontService,sans-serif" font-weight="400" font-size="50" transform="matrix(1 0 0 1 211.803 2113)">ordId: "sap.s4:apiResource:OP_A_LGLCNTNTMACCESSLVL_CDS:v1"</text><text font-family="Consolas,Consolas_MSFontService,sans-serif" font-weight="400" font-size="50" transform="matrix(1 0 0 1 211.803 2173)">version: "1.1.0"</text><text font-family="Consolas,Consolas_MSFontService,sans-serif" font-weight="400" font-size="50" transform="matrix(1 0 0 1 211.803 2234)">releaseStatus: "</text><text font-family="Consolas,Consolas_MSFontService,sans-serif" font-weight="700" font-size="50" transform="matrix(1 0 0 1 651.803 2234)">deprecated</text><text font-family="Consolas,Consolas_MSFontService,sans-serif" font-weight="400" font-size="50" transform="matrix(1 0 0 1 926.803 2234)">"</text><rect x="730.5" y="878.5" width="653" height="129" stroke="#4FB81C" stroke-width="9.16667" stroke-miterlimit="8" fill="#DAF7CB"/><text font-family="Arial,Arial_MSFontService,sans-serif" font-weight="400" font-size="55" transform="matrix(1 0 0 1 814.813 963)">Compatible Change</text><path d="M6.875-5.37784e-05 6.87545 57.8975-6.87455 57.8977-6.875 5.37784e-05ZM20.6254 51.0224 0.000721785 92.2726-20.6246 51.0228Z" transform="matrix(-1 0 0 1 1057 785)"/><path d="M1063.88 1007 1063.88 1302.18 1050.13 1302.18 1050.12 1007ZM1077.63 1295.3 1057 1336.55 1036.38 1295.3Z"/><text font-family="Arial,Arial_MSFontService,sans-serif" font-weight="400" font-size="50" transform="matrix(1 0 0 1 3066.58 1042)">New resource MUST be created</text><text font-family="Arial,Arial_MSFontService,sans-serif" font-weight="400" font-size="50" transform="matrix(1 0 0 1 3066.58 1103)">ID </text><text font-family="Arial,Arial_MSFontService,sans-serif" font-weight="400" font-size="50" transform="matrix(1 0 0 1 3130.75 1103)">increments </text><text font-family="Arial,Arial_MSFontService,sans-serif" font-weight="400" font-size="50" transform="matrix(1 0 0 1 3390.85 1103)">&lt;majorVersion&gt;</text><text font-family="Arial,Arial_MSFontService,sans-serif" font-weight="400" font-size="50" transform="matrix(1 0 0 1 3066.58 1163)">Old resource MUST be kept and supported in </text><text font-family="Arial,Arial_MSFontService,sans-serif" font-weight="400" font-size="50" transform="matrix(1 0 0 1 3066.58 1224)">parallel if API deprecation rules apply</text><rect x="2070.5" y="1446.5" width="653" height="129" stroke="#E35500" stroke-width="9.16667" stroke-miterlimit="8" fill="#FFDCC6"/><text font-family="Arial,Arial_MSFontService,sans-serif" font-weight="400" font-size="55" transform="matrix(1 0 0 1 2137.89 1531)">Incompatible Change</text><path d="M1.82681e-05-6.875 101.443-6.87473 101.443 6.87527-1.82681e-05 6.875ZM94.5679-20.6247 135.818 0.000360892 94.5678 20.6253Z" transform="matrix(1 0 0 -1 1934 1511)"/><text font-family="Arial,Arial_MSFontService,sans-serif" font-weight="400" font-size="50" transform="matrix(1 0 0 1 2436.87 1837)">Old resource is kept </text><text font-family="Arial,Arial_MSFontService,sans-serif" font-weight="400" font-size="50" transform="matrix(1 0 0 1 2436.87 1898)">(due to API </text><text font-family="Arial,Arial_MSFontService,sans-serif" font-weight="400" font-size="50" transform="matrix(1 0 0 1 2702.13 1898)">deprecation rules)</text><text font-family="Arial,Arial_MSFontService,sans-serif" font-weight="400" font-size="50" transform="matrix(1 0 0 1 2436.87 1958)">MUST </text><text font-family="Arial,Arial_MSFontService,sans-serif" font-weight="400" font-size="50" transform="matrix(1 0 0 1 2593.85 1958)">be marked </text><text font-family="Arial,Arial_MSFontService,sans-serif" font-weight="400" font-size="50" transform="matrix(1 0 0 1 2845.36 1958)">as deprecated </text><path d="M2403.6 1575 2403.6 1616.25 2389.85 1616.25 2389.85 1575ZM2403.6 1630 2403.6 1671.25 2389.85 1671.25 2389.85 1630ZM2403.6 1685 2403.6 1726.25 2389.85 1726.25 2389.85 1685ZM2403.6 1740 2403.6 1781.25 2389.85 1781.25 2389.85 1740ZM2403.6 1795 2403.6 1836.25 2389.85 1836.25 2389.85 1795ZM2403.6 1850 2403.6 1891.25 2389.85 1891.25 2389.85 1850ZM2403.6 1905 2403.6 1946.25 2389.85 1946.25 2389.85 1905ZM2403.6 1960 2403.6 2001.25 2389.85 2001.25 2389.85 1960ZM2403.6 2015 2403.6 2056.25 2389.85 2056.25 2389.85 2015ZM2403.6 2070 2403.6 2111.25 2389.85 2111.25 2389.85 2070ZM2384.73 2119.89 2343.48 2119.89 2343.48 2106.14 2384.73 2106.14ZM2329.73 2119.89 2288.48 2119.89 2288.48 2106.14 2329.73 2106.14ZM2274.73 2119.89 2233.48 2119.89 2233.48 2106.14 2274.73 2106.14ZM2219.73 2119.89 2178.48 2119.89 2178.48 2106.14 2219.73 2106.14ZM2164.73 2119.89 2123.48 2119.89 2123.48 2106.14 2164.73 2106.14ZM2109.73 2119.89 2068.48 2119.89 2068.48 2106.14 2109.73 2106.14ZM2054.73 2119.89 2013.48 2119.89 2013.48 2106.14 2054.73 2106.14ZM1999.73 2119.89 1968.38 2119.89 1968.38 2106.14 1999.73 2106.14ZM1975.25 2133.64 1934 2113.01 1975.25 2092.39Z"/><path d="M0-6.875 299.878-6.875C303.675-6.875 306.753-3.79696 306.753 0L306.753 673.12 293.003 673.12 293.003 0 299.878 6.875 0 6.875ZM320.503 666.245 299.878 707.495 279.253 666.245Z" transform="matrix(1 0 0 -1 2723 1510.5)"/></g></svg>